<?xml version="1.0" standalone="no"?>
<!DOCTYPE svg PUBLIC "-//W3C//DTD SVG 20010904//EN"
 "http://www.w3.org/TR/2001/REC-SVG-20010904/DTD/svg10.dtd">
<svg version="1.0" xmlns="http://www.w3.org/2000/svg"
 width="871.000000pt" height="147.000000pt" viewBox="23 0 871.000000 147.000000"
 preserveAspectRatio="xMidYMid meet">
 <defs><style>.cls-1{fill:#e84735;}.cls-2{fill:#007bc3;}.cls-3{fill:#002855;}.cls-4{fill:#fe5000;}.cls-5{fill:#00b2a9;}</style></defs>
<metadata>
Created by potrace 1.16, written by Peter Selinger 2001-2019
</metadata>
<g transform="translate(0.000000,147.000000) scale(0.100000,-0.100000)"
fill="#000000" stroke="none">
<path class="cls-2" d="M6770 1155 c-210 -59 -330 -260 -299 -498 29 -220 194 -357 428 -357
201 1 374 142 410 335 42 225 -44 412 -226 497 -56 27 -80 32 -162 35 -65 2
-114 -2 -151 -12z m210 -205 c67 -34 102 -106 102 -210 0 -107 -42 -187 -116
-221 -137 -62 -266 41 -266 211 0 102 55 199 130 229 41 16 108 12 150 -9z"/>
<path class="cls-2" d="M7543 1153 l-73 -4 0 -415 0 -415 108 3 107 3 5 254 5 254 54 -99
c30 -55 65 -116 78 -136 l23 -38 74 0 74 0 76 138 76 137 0 -245 c0 -135 4
-251 8 -258 6 -9 36 -12 113 -10 l104 3 0 410 0 410 -115 7 c-63 3 -122 5
-130 2 -9 -2 -58 -78 -110 -168 -52 -91 -97 -162 -100 -160 -3 3 -48 78 -100
167 l-96 162 -54 1 c-30 0 -88 -1 -127 -3z"/>
<path class="cls-1" d="M257 1143 c-4 -3 -7 -46 -7 -95 l0 -88 113 0 c61 0 118 -4 124 -8 10
-6 13 -85 15 -317 l3 -310 115 0 115 0 3 313 c1 171 6 312 10 313 4 0 55 1
114 2 59 2 112 7 117 12 4 6 6 49 3 98 l-5 87 -357 0 c-196 0 -360 -3 -363 -7z"/>
<path class="cls-1" d="M1141 963 c-41 -104 -113 -288 -162 -411 -49 -122 -89 -225 -89 -227
0 -3 51 -5 114 -5 l114 0 32 87 c17 48 37 91 43 95 7 4 74 8 149 8 159 0 150
6 189 -117 l23 -73 119 0 c109 0 119 1 112 17 -3 10 -74 197 -158 416 l-151
397 -131 0 -131 0 -73 -187z m246 -148 l41 -125 -90 0 c-68 0 -89 3 -86 13 3
6 23 63 44 124 21 62 41 113 44 113 3 0 24 -56 47 -125z"/>
<path class="cls-1" d="M1706 1134 c-8 -20 -8 -138 0 -158 5 -13 25 -16 113 -16 58 0 112 -4
118 -8 10 -6 13 -85 15 -317 l3 -310 118 -3 117 -3 0 315 c0 242 3 315 13 319
6 3 33 2 58 0 26 -3 77 -2 113 2 l67 7 -3 91 -3 92 -361 3 c-323 2 -362 1
-368 -14z"/>
<path class="cls-1" d="M2474 1137 c-3 -8 -4 -49 -2 -93 l3 -79 100 -2 c55 -2 110 -5 122 -8
l23 -5 2 -313 3 -312 118 -3 117 -3 0 315 c0 242 3 315 13 319 6 3 33 2 58 0
26 -3 77 -2 113 2 l66 7 -1 76 c0 42 -3 85 -6 95 -4 16 -30 17 -364 17 -291 0
-361 -3 -365 -13z"/>
<path class="cls-1" d="M3317 1143 c-4 -3 -7 -190 -7 -414 l0 -409 23 -5 c12 -3 150 -4 307
-3 l285 3 3 92 3 93 -193 2 -193 3 0 70 0 70 168 3 167 2 0 90 0 90 -167 2
-168 3 0 65 0 65 188 3 187 2 0 90 0 90 -298 0 c-164 0 -302 -3 -305 -7z"/>
<path class="cls-1" d="M4212 1134 c-21 -14 -22 -22 -22 -152 0 -314 -42 -460 -136 -478
l-35 -6 3 -92 3 -91 59 2 c188 7 294 174 312 488 8 157 2 146 87 143 l72 -3 5
-310 5 -310 105 0 105 0 3 404 c2 317 -1 406 -10 413 -7 4 -130 8 -273 8 -220
0 -264 -2 -283 -16z"/>
<path class="cls-1" d="M4905 1137 c-3 -6 -4 -192 -3 -412 l3 -400 308 -3 307 -2 0 90 0 90
-182 0 c-101 0 -189 4 -196 9 -9 5 -12 27 -10 72 l3 64 165 5 165 5 3 87 3 88
-168 2 -168 3 -3 59 c-2 41 1 62 10 67 7 5 93 9 191 9 l177 0 0 90 0 90 -300
0 c-232 0 -302 -3 -305 -13z"/>
<path class="cls-2" d="M5660 735 l0 -415 109 0 c90 0 110 3 115 16 3 9 6 81 6 160 l0 144
70 0 70 0 80 -160 80 -160 131 0 c115 0 130 2 125 16 -3 8 -51 97 -106 196
l-99 180 33 42 c39 48 57 82 80 149 15 43 56 220 56 239 0 12 -218 10 -225 -2
-4 -6 -15 -51 -25 -101 -31 -152 -66 -186 -194 -196 l-75 -6 -3 154 -3 154
-112 3 -113 3 0 -416z"/>
</g>
</svg>
